<?xml version="1.0" encoding="UTF-8"?>
<svg version="1.1" xmlns="http://www.w3.org/2000/svg" width="2000" height="2000">
<path d="M0 0 C660 0 1320 0 2000 0 C2000 660 2000 1320 2000 2000 C1340 2000 680 2000 0 2000 C0 1340 0 680 0 0 Z " fill="#310642" transform="translate(0,0)"/>
<path d="M0 0 C12.74361602 10.88756383 19.60665058 24.67114643 21.6015625 41.22265625 C21.74280435 44.39792304 21.74849202 47.56901221 21.74682617 50.74707031 C21.75018478 51.67651962 21.7535434 52.60596893 21.75700378 53.56358337 C21.76646555 56.62182978 21.76845458 59.68002114 21.76953125 62.73828125 C21.77274744 64.87668886 21.77611179 67.01509626 21.77961731 69.15350342 C21.78559686 73.63212595 21.78745845 78.11072923 21.78686523 82.58935547 C21.78676375 88.30635755 21.80040731 94.02323507 21.81763744 99.74020767 C21.82879918 104.15678465 21.83078315 108.57333193 21.83025551 112.98992157 C21.83142967 115.09647805 21.8358195 117.20303545 21.84358788 119.30957794 C21.9162307 141.04471187 19.73350697 158.97164173 4.35546875 175.66015625 C-9.91057539 189.52796928 -28.48421102 193.88342701 -47.81567383 193.69335938 C-66.85146903 193.10021617 -82.98557914 187.26957701 -96.3984375 173.22265625 C-107.58036216 160.61220377 -111.53810012 145.26077837 -111.55957031 128.74584961 C-111.56453522 127.82121918 -111.56950012 126.89658875 -111.57461548 125.94393921 C-111.58915891 122.90011841 -111.5960272 119.85634977 -111.6015625 116.8125 C-111.60438988 115.76623507 -111.60721725 114.71997013 -111.61013031 113.6420002 C-111.62509391 108.10158157 -111.63434034 102.56118878 -111.63867188 97.02075195 C-111.64414211 91.33089552 -111.66814781 85.64128011 -111.69664383 79.95149899 C-111.71537969 75.5476668 -111.72048168 71.14389131 -111.72200775 66.74002266 C-111.7250118 64.64431 -111.73296316 62.54859779 -111.74619293 60.45292473 C-111.87362342 38.70961183 -109.42252956 20.39992313 -94.1484375 3.7734375 C-69.99238339 -19.62773992 -26.16941653 -20.17382975 0 0 Z " fill="#EDEDED" transform="translate(1357.3984375,1074.77734375)"/>
<path d="M0 0 C12.74361602 10.88756383 19.60665058 24.67114643 21.6015625 41.22265625 C21.74280435 44.39792304 21.74849202 47.56901221 21.74682617 50.74707031 C21.75018478 51.67651962 21.7535434 52.60596893 21.75700378 53.56358337 C21.76646555 56.62182978 21.76845458 59.68002114 21.76953125 62.73828125 C21.77274744 64.87668886 21.77611179 67.01509626 21.77961731 69.15350342 C21.78559686 73.63212595 21.78745845 78.11072923 21.78686523 82.58935547 C21.78676375 88.30635755 21.80040731 94.02323507 21.81763744 99.74020767 C21.82879918 104.15678465 21.83078315 108.57333193 21.83025551 112.98992157 C21.83142967 115.09647805 21.8358195 117.20303545 21.84358788 119.30957794 C21.9162307 141.04471187 19.73350697 158.97164173 4.35546875 175.66015625 C-9.91057539 189.52796928 -28.48421102 193.88342701 -47.81567383 193.69335938 C-66.85146903 193.10021617 -82.98557914 187.26957701 -96.3984375 173.22265625 C-107.58036216 160.61220377 -111.53810012 145.26077837 -111.55957031 128.74584961 C-111.56453522 127.82121918 -111.56950012 126.89658875 -111.57461548 125.94393921 C-111.58915891 122.90011841 -111.5960272 119.85634977 -111.6015625 116.8125 C-111.60438988 115.76623507 -111.60721725 114.71997013 -111.61013031 113.6420002 C-111.62509391 108.10158157 -111.63434034 102.56118878 -111.63867188 97.02075195 C-111.64414211 91.33089552 -111.66814781 85.64128011 -111.69664383 79.95149899 C-111.71537969 75.5476668 -111.72048168 71.14389131 -111.72200775 66.74002266 C-111.7250118 64.64431 -111.73296316 62.54859779 -111.74619293 60.45292473 C-111.87362342 38.70961183 -109.42252956 20.39992313 -94.1484375 3.7734375 C-69.99238339 -19.62773992 -26.16941653 -20.17382975 0 0 Z " fill="#EDEDED" transform="translate(532.3984375,1074.77734375)"/>
<path d="M0 0 C97.93457944 0 97.93457944 0 119.34375 19.08984375 C130.80393382 30.92468743 135.54204284 46.92856576 135.41992188 63.07397461 C134.83621553 80.91630614 127.98804938 96.59934984 115 109 C110.16459877 113.29991051 106.18846882 116.02222558 100 118 C100.49177734 119.05872314 100.98355469 120.11744629 101.49023438 121.20825195 C103.82810727 126.24240558 106.1644051 131.27728913 108.5 136.3125 C108.92473602 137.22816742 109.34947205 138.14383484 109.78707886 139.08724976 C116.60743073 153.79557478 123.37793828 168.52595434 130.09765625 183.28051758 C130.41532455 183.97745728 130.73299286 184.67439697 131.06028748 185.39245605 C131.90946452 187.25586519 132.75762945 189.11973546 133.60571289 190.98364258 C134.42303405 192.7518098 135.27111811 194.50733762 136.18920898 196.2253418 C137 198 137 198 137 201 C122.15 201 107.3 201 92 201 C89.15879698 194.45840664 86.31770664 187.91676579 83.47751617 181.37473297 C82.15380594 178.32580083 80.8298785 175.2769635 79.50561523 172.22827148 C76.47763813 165.25715047 73.45330539 158.28446908 70.43389893 151.30963135 C69.48843109 149.12736456 68.5416429 146.94566928 67.59344482 144.7645874 C66.30766317 141.80672808 65.02632185 138.84698508 63.74609375 135.88671875 C63.36332779 135.00909378 62.98056183 134.13146881 62.5861969 133.22724915 C62.24249557 132.4299791 61.89879425 131.63270905 61.54467773 130.8112793 C61.2444017 130.11898727 60.94412567 129.42669525 60.63475037 128.71342468 C60 127 60 127 60 125 C53.73 125 47.46 125 41 125 C41 150.08 41 175.16 41 201 C27.47 201 13.94 201 0 201 C0 134.67 0 68.34 0 0 Z " fill="#EEEEEE" transform="translate(918,700)"/>
<path d="M0 0 C97.93457944 0 97.93457944 0 119.34375 19.08984375 C130.80393382 30.92468743 135.54204284 46.92856576 135.41992188 63.07397461 C134.83621553 80.91630614 127.98804938 96.59934984 115 109 C110.16459877 113.29991051 106.18846882 116.02222558 100 118 C100.49177734 119.05872314 100.98355469 120.11744629 101.49023438 121.20825195 C103.82810727 126.24240558 106.1644051 131.27728913 108.5 136.3125 C108.92473602 137.22816742 109.34947205 138.14383484 109.78707886 139.08724976 C116.60743073 153.79557478 123.37793828 168.52595434 130.09765625 183.28051758 C130.41532455 183.97745728 130.73299286 184.67439697 131.06028748 185.39245605 C131.90946452 187.25586519 132.75762945 189.11973546 133.60571289 190.98364258 C134.42303405 192.7518098 135.27111811 194.50733762 136.18920898 196.2253418 C137 198 137 198 137 201 C122.15 201 107.3 201 92 201 C89.15879698 194.45840664 86.31770664 187.91676579 83.47751617 181.37473297 C82.15380594 178.32580083 80.8298785 175.2769635 79.50561523 172.22827148 C76.47763813 165.25715047 73.45330539 158.28446908 70.43389893 151.30963135 C69.48843109 149.12736456 68.5416429 146.94566928 67.59344482 144.7645874 C66.30766317 141.80672808 65.02632185 138.84698508 63.74609375 135.88671875 C63.36332779 135.00909378 62.98056183 134.13146881 62.5861969 133.22724915 C62.24249557 132.4299791 61.89879425 131.63270905 61.54467773 130.8112793 C61.2444017 130.11898727 60.94412567 129.42669525 60.63475037 128.71342468 C60 127 60 127 60 125 C53.73 125 47.46 125 41 125 C41 150.08 41 175.16 41 201 C27.47 201 13.94 201 0 201 C0 134.67 0 68.34 0 0 Z " fill="#EEEEEE" transform="translate(753,700)"/>
<path d="M0 0 C16.83 0 33.66 0 51 0 C52.67508076 4.1877019 53.86468091 8.18185319 54.87939453 12.54418945 C55.05525085 13.28619095 55.23110718 14.02819244 55.41229248 14.79267883 C55.98946768 17.23202987 56.56116842 19.67262867 57.1328125 22.11328125 C57.53318093 23.81015353 57.93389175 25.50694506 58.33493042 27.20365906 C59.38718895 31.65965081 60.43480241 36.11672202 61.48144531 40.57403564 C62.55122777 45.12619134 63.62540932 49.6773085 64.69921875 54.22851562 C66.80378068 63.15133404 68.90343578 72.07529927 71 81 C73.72036104 70.991027 76.2572393 60.95543368 78.63671875 50.859375 C78.96468822 49.47547236 79.29288414 48.09162336 79.62129211 46.70782471 C80.47253699 43.11912418 81.32154953 39.52990012 82.1697998 35.94049072 C83.53695499 30.15578988 84.90636476 24.37162566 86.27814674 18.58802032 C86.75407817 16.5791257 87.22826563 14.56982498 87.70231628 12.56048584 C87.98964127 11.34782043 88.27696625 10.13515503 88.57299805 8.88574219 C88.825186 7.81845886 89.07737396 6.75117554 89.33720398 5.65155029 C90 3 90 3 91 0 C108.16 0 125.32 0 143 0 C143 66.33 143 132.66 143 201 C130.46 201 117.92 201 105 201 C104.90832605 186.6526736 104.83524357 172.30553986 104.79275131 157.95798206 C104.77246296 151.29031055 104.74448031 144.62287989 104.69824219 137.95532227 C104.47614039 105.05988873 105.27697504 72.69882328 109 40 C109.18724084 38.32120671 109.37399365 36.64235892 109.5602417 34.9634552 C109.70536194 33.65551498 109.85048218 32.34757477 110 31 C109.83348938 31.65573502 109.66697876 32.31147003 109.49542236 32.98707581 C107.74410999 39.88317573 105.99154173 46.77895565 104.23828125 53.67456055 C103.58617627 56.23956042 102.9345746 58.80468663 102.28320312 61.36987305 C98.92374361 74.59903304 95.555368 87.82195123 92 101 C90.68 105.95 89.36 110.9 88 116 C76.78 116 65.56 116 54 116 C45.81045067 85.562175 45.81045067 85.562175 43.3659668 74.78051758 C42.07412602 69.14655778 40.51734327 63.60571966 38.93603516 58.04833984 C36.32605678 48.77312667 34.16999199 39.38608753 32 30 C32.11069824 30.84369141 32.22139648 31.68738281 32.33544922 32.55664062 C32.7610791 35.82172227 33.18158537 39.08739249 33.59912109 42.35351562 C33.77754949 43.7417833 33.95776712 45.12982269 34.14013672 46.51757812 C37.07205342 68.85911101 38.29458437 90.96873329 38.1953125 113.5 C38.19156984 116.04402555 38.18872882 118.58805256 38.18673706 121.13208008 C38.1799634 127.07057548 38.1643135 133.0089919 38.14403808 138.94745541 C38.12141209 145.72659031 38.1106197 152.50572956 38.10064721 159.28489304 C38.07993606 173.18997849 38.04336982 187.09496769 38 201 C25.46 201 12.92 201 0 201 C0 134.67 0 68.34 0 0 Z " fill="#EDEDED" transform="translate(1406,700)"/>
<path d="M0 0 C16.17 0 32.34 0 49 0 C56.76542636 22.63539173 64.45291004 45.29108656 72 68 C78.11481226 86.39910304 84.29381015 104.77403203 90.5859375 123.11328125 C90.85600616 123.9005661 91.12607483 124.68785095 91.40432739 125.49899292 C91.89284426 126.92216579 92.38192159 128.34514651 92.87179565 129.76785278 C94.95549913 135.83156659 96.97845394 141.91532367 99 148 C98.910103 147.01899323 98.82020599 146.03798645 98.72758484 145.0272522 C96.00657579 114.65309456 95.62023173 84.4584788 95.79400635 53.97851562 C95.82539694 47.86201237 95.83854275 41.74546782 95.85351562 35.62890625 C95.88513097 23.75248411 95.93762111 11.8763004 96 0 C108.21 0 120.42 0 133 0 C133 66.33 133 132.66 133 201 C116.83 201 100.66 201 84 201 C67.66666667 152 51.33333333 103 35 54 C35.14019551 58.31270236 35.28818192 62.62510461 35.4375 66.9375 C35.47681641 68.14986328 35.51613281 69.36222656 35.55664062 70.61132812 C35.81727316 78.16150497 35.81727316 78.16150497 36.52806091 85.6782074 C37.16576327 90.85447815 37.1321505 96.00186347 37.11352539 101.21118164 C37.11367142 102.29514221 37.11381744 103.37910278 37.1139679 104.49591064 C37.11327561 108.0506801 37.10551543 111.60539604 37.09765625 115.16015625 C37.09578964 117.63594026 37.09436688 120.11172464 37.09336853 122.58750916 C37.08956251 129.08280468 37.07974866 135.57807762 37.06866455 142.07336426 C37.05840917 148.70971411 37.05386208 155.34606619 37.04882812 161.98242188 C37.03812459 174.98829274 37.02054339 187.99414095 37 201 C24.79 201 12.58 201 0 201 C0 134.67 0 68.34 0 0 Z " fill="#EDEDED" transform="translate(1411,1064)"/>
<path d="M0 0 C13.86 0 27.72 0 42 0 C42.01458252 4.40069824 42.02916504 8.80139648 42.04418945 13.33544922 C42.09455242 27.88408284 42.16100138 42.43261025 42.23571491 56.98113823 C42.2806166 65.80088987 42.32004416 74.62060163 42.34643555 83.44042969 C42.36946129 91.13078581 42.40291021 98.82101516 42.44870156 106.51127064 C42.47257226 110.58049893 42.49134124 114.64960215 42.49761391 118.71889877 C42.50369277 122.55538235 42.52379267 126.39154616 42.55427551 130.227911 C42.56301112 131.62983791 42.56678768 133.03180669 42.56500816 134.43375969 C42.5568219 143.86578639 43.05930513 152.18795385 48.0625 160.375 C53.61789096 165.33939192 60.24260662 167.71665363 67.70703125 167.3203125 C74.99904721 166.30166632 80.9194418 164.45230636 86 159 C89.13925284 152.93799452 90.11781784 147.5764727 90.15821838 140.81803894 C90.1680072 139.57428497 90.17779602 138.33053101 90.18788147 137.04908752 C90.19378484 135.67880287 90.19959534 134.30851782 90.20532227 132.93823242 C90.21490679 131.48923466 90.22491721 130.04023967 90.23532104 128.59124756 C90.26231395 124.66400065 90.28335384 120.73674179 90.30332303 116.80945373 C90.32521728 112.70280652 90.35258912 108.59619591 90.37937927 104.48957825 C90.42925969 96.71595998 90.47421575 88.94232135 90.51740164 81.16866332 C90.56681379 72.31742198 90.62171715 63.46621737 90.67708123 54.61501157 C90.79082988 36.41004032 90.89695951 18.20503523 91 0 C104.86 0 118.72 0 133 0 C133.06789734 19.29851333 133.12308636 38.59692893 133.15543652 57.89553165 C133.170861 66.85756286 133.19186531 75.81951421 133.22631836 84.78149414 C133.25635678 92.59890645 133.27560706 100.41626088 133.28226548 108.2337293 C133.28615345 112.36744607 133.29519687 116.50099735 133.31719017 120.63466072 C133.33778442 124.53755725 133.34378831 128.44022255 133.33932304 132.34316826 C133.34013812 133.76399372 133.3459657 135.18482816 133.35761642 136.60560608 C133.5063971 155.71091725 129.71901511 172.86314686 116 187 C101.99595123 199.72532856 85.32936332 204.42160922 66.6875 204.3125 C65.68420654 204.30758545 64.68091309 204.3026709 63.6472168 204.29760742 C45.29195361 204.00921194 29.4626443 198.45360871 15.78125 185.9765625 C1.99706265 171.7152302 -0.49616332 153.5010692 -0.34057617 134.52758789 C-0.33972713 133.04756182 -0.34021043 131.5675345 -0.34190369 130.08750916 C-0.34275428 126.12146715 -0.32528294 122.15570483 -0.30418181 118.18972707 C-0.28525632 114.02578656 -0.2836522 109.8618376 -0.28010559 105.69786072 C-0.27083126 97.83595458 -0.24628088 89.97417561 -0.21605712 82.11232513 C-0.18236833 73.15206904 -0.16599093 64.19180645 -0.15097082 55.23150265 C-0.11972643 36.82091532 -0.06477308 18.410502 0 0 Z " fill="#EDEDED" transform="translate(751,1064)"/>
<path d="M0 0 C13.86 0 27.72 0 42 0 C42.01458252 4.40069824 42.02916504 8.80139648 42.04418945 13.33544922 C42.09455242 27.88408284 42.16100138 42.43261025 42.23571491 56.98113823 C42.2806166 65.80088987 42.32004416 74.62060163 42.34643555 83.44042969 C42.36946129 91.13078581 42.40291021 98.82101516 42.44870156 106.51127064 C42.47257226 110.58049893 42.49134124 114.64960215 42.49761391 118.71889877 C42.50369277 122.55538235 42.52379267 126.39154616 42.55427551 130.227911 C42.56301112 131.62983791 42.56678768 133.03180669 42.56500816 134.43375969 C42.5568219 143.86578639 43.05930513 152.18795385 48.0625 160.375 C53.61789096 165.33939192 60.24260662 167.71665363 67.70703125 167.3203125 C74.99904721 166.30166632 80.9194418 164.45230636 86 159 C89.13925284 152.93799452 90.11781784 147.5764727 90.15821838 140.81803894 C90.1680072 139.57428497 90.17779602 138.33053101 90.18788147 137.04908752 C90.19378484 135.67880287 90.19959534 134.30851782 90.20532227 132.93823242 C90.21490679 131.48923466 90.22491721 130.04023967 90.23532104 128.59124756 C90.26231395 124.66400065 90.28335384 120.73674179 90.30332303 116.80945373 C90.32521728 112.70280652 90.35258912 108.59619591 90.37937927 104.48957825 C90.42925969 96.71595998 90.47421575 88.94232135 90.51740164 81.16866332 C90.56681379 72.31742198 90.62171715 63.46621737 90.67708123 54.61501157 C90.79082988 36.41004032 90.89695951 18.20503523 91 0 C104.86 0 118.72 0 133 0 C133.06789734 19.29851333 133.12308636 38.59692893 133.15543652 57.89553165 C133.170861 66.85756286 133.19186531 75.81951421 133.22631836 84.78149414 C133.25635678 92.59890645 133.27560706 100.41626088 133.28226548 108.2337293 C133.28615345 112.36744607 133.29519687 116.50099735 133.31719017 120.63466072 C133.33778442 124.53755725 133.34378831 128.44022255 133.33932304 132.34316826 C133.34013812 133.76399372 133.3459657 135.18482816 133.35761642 136.60560608 C133.5063971 155.71091725 129.71901511 172.86314686 116 187 C101.99595123 199.72532856 85.32936332 204.42160922 66.6875 204.3125 C65.68420654 204.30758545 64.68091309 204.3026709 63.6472168 204.29760742 C45.29195361 204.00921194 29.4626443 198.45360871 15.78125 185.9765625 C1.99706265 171.7152302 -0.49616332 153.5010692 -0.34057617 134.52758789 C-0.33972713 133.04756182 -0.34021043 131.5675345 -0.34190369 130.08750916 C-0.34275428 126.12146715 -0.32528294 122.15570483 -0.30418181 118.18972707 C-0.28525632 114.02578656 -0.2836522 109.8618376 -0.28010559 105.69786072 C-0.27083126 97.83595458 -0.24628088 89.97417561 -0.21605712 82.11232513 C-0.18236833 73.15206904 -0.16599093 64.19180645 -0.15097082 55.23150265 C-0.11972643 36.82091532 -0.06477308 18.410502 0 0 Z " fill="#EDEDED" transform="translate(1246,700)"/>
<path d="M0 0 C1.39344829 1.1870115 2.76912105 2.39524933 4.125 3.625 C4.81078125 4.20765625 5.4965625 4.7903125 6.203125 5.390625 C13.90283174 12.38501509 19.66859408 22.26833567 21.125 32.625 C21.125 36.915 21.125 41.205 21.125 45.625 C7.925 45.625 -5.275 45.625 -18.875 45.625 C-19.865 41.995 -20.855 38.365 -21.875 34.625 C-25.55367024 28.90262408 -29.67185311 26.6201159 -36.234375 25.06640625 C-45.71228433 23.48208117 -54.56002369 24.27425406 -62.75 29.4375 C-67.17282115 33.99040413 -68.09763646 37.81713301 -68.3125 44.0625 C-68.16037857 49.86957028 -67.53070667 53.10346807 -63.875 57.625 C-59.10620769 61.36946509 -54.67289723 62.74223003 -48.890625 64.0625 C-48.03498962 64.26931396 -47.17935425 64.47612793 -46.29779053 64.68920898 C-43.57609921 65.34585056 -40.85104651 65.98670147 -38.125 66.625 C-16.58989992 71.70700684 2.85161597 77.41718135 15.75 96.875 C25.75985471 113.29566053 29.64529377 132.05674851 25.25 151.13671875 C20.19040961 167.33073667 10.8069044 178.47488574 -3.875 186.625 C-23.53803926 196.60486904 -48.80312488 197.93136647 -69.875 191.625 C-84.98558017 186.56962208 -98.6445488 177.65757144 -106.5234375 163.484375 C-111.42602278 153.11243157 -112.875 145.47754213 -112.875 133.625 C-99.675 133.625 -86.475 133.625 -72.875 133.625 C-71.555 137.915 -70.235 142.205 -68.875 146.625 C-62.65499375 153.71798958 -55.61308853 156.96815617 -46.2578125 158.0390625 C-37.10412041 158.39472743 -28.33672761 157.20039462 -21.09375 151.1328125 C-15.8629734 145.26339457 -15.48923007 139.3119015 -15.625 131.78515625 C-16.08879985 125.92243628 -18.2881452 121.38332676 -22.27270508 116.95288086 C-29.89229467 110.63824612 -42.2457398 109.43912345 -51.69628906 107.27587891 C-71.95836603 102.60629082 -90.15315979 94.8545763 -101.8125 76.58984375 C-110.19068037 61.94548265 -112.41546016 45.57203784 -108.6875 29.0625 C-104.26186303 14.39875354 -94.75078066 2.64522851 -81.28515625 -4.80859375 C-57.12376049 -16.49064593 -22.11965917 -16.53312409 0 0 Z " fill="#EEEEEE" transform="translate(1685.875,1073.375)"/>
<path d="M0 0 C1.39344829 1.1870115 2.76912105 2.39524933 4.125 3.625 C4.81078125 4.20765625 5.4965625 4.7903125 6.203125 5.390625 C13.90283174 12.38501509 19.66859408 22.26833567 21.125 32.625 C21.125 36.915 21.125 41.205 21.125 45.625 C7.925 45.625 -5.275 45.625 -18.875 45.625 C-19.865 41.995 -20.855 38.365 -21.875 34.625 C-25.55367024 28.90262408 -29.67185311 26.6201159 -36.234375 25.06640625 C-45.71228433 23.48208117 -54.56002369 24.27425406 -62.75 29.4375 C-67.17282115 33.99040413 -68.09763646 37.81713301 -68.3125 44.0625 C-68.16037857 49.86957028 -67.53070667 53.10346807 -63.875 57.625 C-59.10620769 61.36946509 -54.67289723 62.74223003 -48.890625 64.0625 C-48.03498962 64.26931396 -47.17935425 64.47612793 -46.29779053 64.68920898 C-43.57609921 65.34585056 -40.85104651 65.98670147 -38.125 66.625 C-16.58989992 71.70700684 2.85161597 77.41718135 15.75 96.875 C25.75985471 113.29566053 29.64529377 132.05674851 25.25 151.13671875 C20.19040961 167.33073667 10.8069044 178.47488574 -3.875 186.625 C-23.53803926 196.60486904 -48.80312488 197.93136647 -69.875 191.625 C-84.98558017 186.56962208 -98.6445488 177.65757144 -106.5234375 163.484375 C-111.42602278 153.11243157 -112.875 145.47754213 -112.875 133.625 C-99.675 133.625 -86.475 133.625 -72.875 133.625 C-71.555 137.915 -70.235 142.205 -68.875 146.625 C-62.65499375 153.71798958 -55.61308853 156.96815617 -46.2578125 158.0390625 C-37.10412041 158.39472743 -28.33672761 157.20039462 -21.09375 151.1328125 C-15.8629734 145.26339457 -15.48923007 139.3119015 -15.625 131.78515625 C-16.08879985 125.92243628 -18.2881452 121.38332676 -22.27270508 116.95288086 C-29.89229467 110.63824612 -42.2457398 109.43912345 -51.69628906 107.27587891 C-71.95836603 102.60629082 -90.15315979 94.8545763 -101.8125 76.58984375 C-110.19068037 61.94548265 -112.41546016 45.57203784 -108.6875 29.0625 C-104.26186303 14.39875354 -94.75078066 2.64522851 -81.28515625 -4.80859375 C-57.12376049 -16.49064593 -22.11965917 -16.53312409 0 0 Z " fill="#EEEEEE" transform="translate(365.875,1073.375)"/>
<path d="M0 0 C40.92 0 81.84 0 124 0 C124 11.88 124 23.76 124 36 C96.61 36 69.22 36 41 36 C41 50.85 41 65.7 41 81 C65.09 81 89.18 81 114 81 C114 92.55 114 104.1 114 116 C89.91 116 65.82 116 41 116 C41 132.17 41 148.34 41 165 C68.39 165 95.78 165 124 165 C124 176.88 124 188.76 124 201 C83.08 201 42.16 201 0 201 C0 134.67 0 68.34 0 0 Z " fill="#EEEEEE" transform="translate(592,700)"/>
<path d="M0 0 C39.93 0 79.86 0 121 0 C121 12.21 121 24.42 121 37 C107.8 37 94.6 37 81 37 C81 78.91 81 120.82 81 164 C94.2 164 107.4 164 121 164 C121 176.21 121 188.42 121 201 C81.07 201 41.14 201 0 201 C0 188.79 0 176.58 0 164 C13.2 164 26.4 164 40 164 C40 122.09 40 80.18 40 37 C26.8 37 13.6 37 0 37 C0 24.79 0 12.58 0 0 Z " fill="#EFEFEF" transform="translate(1087,1064)"/>
<path d="M0 0 C39.93 0 79.86 0 121 0 C121 12.21 121 24.42 121 37 C107.8 37 94.6 37 81 37 C81 78.91 81 120.82 81 164 C94.2 164 107.4 164 121 164 C121 176.21 121 188.42 121 201 C81.07 201 41.14 201 0 201 C0 188.79 0 176.58 0 164 C13.2 164 26.4 164 40 164 C40 122.09 40 80.18 40 37 C26.8 37 13.6 37 0 37 C0 24.79 0 12.58 0 0 Z " fill="#EFEFEF" transform="translate(1087,700)"/>
<path d="M0 0 C47.19 0 94.38 0 143 0 C143 12.21 143 24.42 143 37 C126.17 37 109.34 37 92 37 C92 91.12 92 145.24 92 201 C78.47 201 64.94 201 51 201 C51 146.88 51 92.76 51 37 C34.17 37 17.34 37 0 37 C0 24.79 0 12.58 0 0 Z " fill="#EFEFEF" transform="translate(911,1064)"/>
<path d="M0 0 C13.86 0 27.72 0 42 0 C42 54.12 42 108.24 42 164 C68.73 164 95.46 164 123 164 C123 176.21 123 188.42 123 201 C82.41 201 41.82 201 0 201 C0 134.67 0 68.34 0 0 Z " fill="#EEEEEE" transform="translate(601,1064)"/>
<path d="M0 0 C13.86 0 27.72 0 42 0 C42 54.12 42 108.24 42 164 C68.73 164 95.46 164 123 164 C123 176.21 123 188.42 123 201 C82.41 201 41.82 201 0 201 C0 134.67 0 68.34 0 0 Z " fill="#EEEEEE" transform="translate(436,700)"/>
<path d="M0 0 C4.90989815 4.65148246 7.09070411 10.99770316 7.38768005 17.65316772 C7.40831161 19.38113138 7.41288012 21.10933807 7.40405273 22.83740234 C7.41091599 23.78811111 7.41777924 24.73881989 7.42485046 25.71833801 C7.44305534 28.84102589 7.43928957 31.96320826 7.43359375 35.0859375 C7.43815887 37.27015342 7.44346543 39.45436791 7.44947815 41.63858032 C7.45839712 46.20963385 7.45600023 50.78051255 7.44604492 55.3515625 C7.43456257 61.19100067 7.45476218 67.02983345 7.48396206 72.86919212 C7.5023652 77.3784057 7.50202327 81.88747534 7.49632454 86.39671707 C7.4961718 88.54876173 7.5021768 90.70081645 7.51461601 92.85282516 C7.52960018 95.87019861 7.51879389 98.88646817 7.50170898 101.90380859 C7.51137695 102.78101059 7.52104492 103.65821259 7.53100586 104.56199646 C7.4513088 111.33045223 6.09595433 118.36039701 1.58814144 123.6597805 C-5.00958392 129.45563786 -12.56302838 129.90992557 -21 130 C-26.85805545 129.45324816 -31.483815 127.90034159 -36 124 C-39.90555052 118.85610419 -42.10816626 114.33902907 -42.14717102 107.82785034 C-42.15432632 107.00380203 -42.16148163 106.17975372 -42.16885376 105.33073425 C-42.17154266 104.43510269 -42.17423157 103.53947113 -42.17700195 102.61669922 C-42.18357315 101.66657455 -42.19014435 100.71644989 -42.19691467 99.73753357 C-42.21662338 96.5932507 -42.22830619 93.4490156 -42.23828125 90.3046875 C-42.24235678 89.22861362 -42.2464323 88.15253975 -42.25063133 87.04385757 C-42.27148378 81.34597211 -42.28578793 75.64811066 -42.29516602 69.95019531 C-42.30621619 64.07931082 -42.34060273 58.20880681 -42.38033772 52.33805656 C-42.40654763 47.81170979 -42.41486186 43.28545299 -42.41844749 38.75903702 C-42.42330372 36.59581056 -42.43489005 34.43258786 -42.45348549 32.26943588 C-42.47796499 29.23254463 -42.47689543 26.19662871 -42.4699707 23.15966797 C-42.48278076 22.27618179 -42.49559082 21.39269562 -42.50878906 20.48243713 C-42.45082937 13.46292621 -41.16586212 6.11556931 -35.98621082 1.01820183 C-26.78124738 -6.30745685 -9.73026351 -6.98289499 0 0 Z " fill="#310642" transform="translate(1330,1102)"/>
<path d="M0 0 C4.90989815 4.65148246 7.09070411 10.99770316 7.38768005 17.65316772 C7.40831161 19.38113138 7.41288012 21.10933807 7.40405273 22.83740234 C7.41091599 23.78811111 7.41777924 24.73881989 7.42485046 25.71833801 C7.44305534 28.84102589 7.43928957 31.96320826 7.43359375 35.0859375 C7.43815887 37.27015342 7.44346543 39.45436791 7.44947815 41.63858032 C7.45839712 46.20963385 7.45600023 50.78051255 7.44604492 55.3515625 C7.43456257 61.19100067 7.45476218 67.02983345 7.48396206 72.86919212 C7.5023652 77.3784057 7.50202327 81.88747534 7.49632454 86.39671707 C7.4961718 88.54876173 7.5021768 90.70081645 7.51461601 92.85282516 C7.52960018 95.87019861 7.51879389 98.88646817 7.50170898 101.90380859 C7.51137695 102.78101059 7.52104492 103.65821259 7.53100586 104.56199646 C7.4513088 111.33045223 6.09595433 118.36039701 1.58814144 123.6597805 C-5.00958392 129.45563786 -12.56302838 129.90992557 -21 130 C-26.85805545 129.45324816 -31.483815 127.90034159 -36 124 C-39.90555052 118.85610419 -42.10816626 114.33902907 -42.14717102 107.82785034 C-42.15432632 107.00380203 -42.16148163 106.17975372 -42.16885376 105.33073425 C-42.17154266 104.43510269 -42.17423157 103.53947113 -42.17700195 102.61669922 C-42.18357315 101.66657455 -42.19014435 100.71644989 -42.19691467 99.73753357 C-42.21662338 96.5932507 -42.22830619 93.4490156 -42.23828125 90.3046875 C-42.24235678 89.22861362 -42.2464323 88.15253975 -42.25063133 87.04385757 C-42.27148378 81.34597211 -42.28578793 75.64811066 -42.29516602 69.95019531 C-42.30621619 64.07931082 -42.34060273 58.20880681 -42.38033772 52.33805656 C-42.40654763 47.81170979 -42.41486186 43.28545299 -42.41844749 38.75903702 C-42.42330372 36.59581056 -42.43489005 34.43258786 -42.45348549 32.26943588 C-42.47796499 29.23254463 -42.47689543 26.19662871 -42.4699707 23.15966797 C-42.48278076 22.27618179 -42.49559082 21.39269562 -42.50878906 20.48243713 C-42.45082937 13.46292621 -41.16586212 6.11556931 -35.98621082 1.01820183 C-26.78124738 -6.30745685 -9.73026351 -6.98289499 0 0 Z " fill="#310642" transform="translate(505,1102)"/>
<path d="M0 0 C6.31125 -0.0928125 6.31125 -0.0928125 12.75 -0.1875 C14.7005127 -0.22846802 14.7005127 -0.22846802 16.69042969 -0.27026367 C26.99903765 -0.34269496 37.19596138 0.48134402 45.37890625 7.3203125 C51.69636679 13.86611499 52.3028138 20.9589336 52.21484375 29.66796875 C51.82750683 35.67521218 50.52372585 40.14681991 46.6875 44.8125 C36.28441694 53.28012574 27.51855418 53.2837286 14.5 53.125 C9.715 53.08375 4.93 53.0425 0 53 C0 35.51 0 18.02 0 0 Z " fill="#310642" transform="translate(959,736)"/>
<path d="M0 0 C6.31125 -0.0928125 6.31125 -0.0928125 12.75 -0.1875 C14.7005127 -0.22846802 14.7005127 -0.22846802 16.69042969 -0.27026367 C26.99903765 -0.34269496 37.19596138 0.48134402 45.37890625 7.3203125 C51.69636679 13.86611499 52.3028138 20.9589336 52.21484375 29.66796875 C51.82750683 35.67521218 50.52372585 40.14681991 46.6875 44.8125 C36.28441694 53.28012574 27.51855418 53.2837286 14.5 53.125 C9.715 53.08375 4.93 53.0425 0 53 C0 35.51 0 18.02 0 0 Z " fill="#310642" transform="translate(794,736)"/>
</svg>
